<svg width="18" height="18" viewBox="0 0 18 18" fill="none" xmlns="http://www.w3.org/2000/svg">
    <path
        d="M3.98918 10.878L3.36262 13.217L1.07258 13.2654C0.388195 11.996 0 10.5437 0 9.00034C0 7.50793 0.362953 6.10055 1.00631 4.86133H1.0068L3.04559 5.23511L3.9387 7.26166C3.75177 7.80661 3.64989 8.39161 3.64989 9.00034C3.64996 9.661 3.76963 10.294 3.98918 10.878Z"
        fill="#FBBB00" />
    <path
        d="M17.8426 7.31836C17.946 7.86279 17.9999 8.42504 17.9999 8.99967C17.9999 9.64402 17.9321 10.2725 17.8031 10.8788C17.365 12.9419 16.2202 14.7434 14.6343 16.0182L14.6338 16.0177L12.0659 15.8867L11.7024 13.6179C12.7547 13.0007 13.5771 12.035 14.0103 10.8788H9.19775V7.31836H14.0805H17.8426Z"
        fill="#518EF8" />
    <path
        d="M14.6341 16.0183L14.6346 16.0188C13.0922 17.2585 11.133 18.0003 9.00017 18.0003C5.57275 18.0003 2.59288 16.0846 1.07275 13.2654L3.98935 10.8779C4.74939 12.9064 6.70616 14.3503 9.00017 14.3503C9.9862 14.3503 10.91 14.0838 11.7026 13.6185L14.6341 16.0183Z"
        fill="#28B446" />
    <path
        d="M14.7447 2.07197L11.8291 4.45894C11.0087 3.94615 10.039 3.64992 9.00004 3.64992C6.65409 3.64992 4.66073 5.16013 3.93877 7.26131L1.00684 4.86098H1.00635C2.50421 1.97307 5.52168 0 9.00004 0C11.1838 0 13.186 0.777867 14.7447 2.07197Z"
        fill="#F14336" />
</svg>